Plot: A film about the struggle against communism in Wroc┼éaw, 1981. The events depicted in the film took place ten days before martial law was introduced in Poland. W┼éadys┼éaw Frasyniuk, then leader of the regional Solidarity, along with four colleagues, withdrew 80 million of the organization's money out of the bank. The money was later used to build the underground resistance movement. Official Poland Foreign Language Academy Awards 2013.


Director:
Waldemar Krzystek

Writers:
Waldemar Krzystek, Krzysztof Konopka

Stars:
Filip Bobek, Marcin Bosak and Wojciech Solarz

Language: Polish

Subtitles: English

Imdb:  
http://www.imdb.com/title/tt2056501/

Rip Specs:

General
Complete name                    : L:80.Millions.2011.DVDRip.AC3.HORiZON-ArtSubs80.Millions.2011.DVDRip.AC3.HORiZON-ArtSubs.avi
Format                           : AVI
Format/Info                      : Audio Video Interleave
File size                        : 1.37 GiB
Duration                         : 1h 42mn
Overall bit rate                 : 1 909 Kbps

Video
ID                               : 0
Format                           : MPEG-4 Visual
Format profile                   : Advanced Simple@L5
Format settings, BVOP            : 1
Format settings, QPel            : No
Format settings, GMC             : No warppoints
Format settings, Matrix          : Custom
Codec ID                         : XVID
Codec ID/Hint                    : XviD
Duration                         : 1h 42mn
Bit rate                         : 1 454 Kbps
Width                            : 720 pixels
Height                           : 320 pixels
Display aspect ratio             : 2.25:1
Frame rate                       : 25.000 fps
Color space                      : YUV
Chroma subsampling               : 4:2:0
Bit depth                        : 8 bits
Scan type                        : Progressive
Compression mode                 : Lossy
Bits/(Pixel*Frame)               : 0.252
Stream size                      : 1.04 GiB (76%)
Writing library                  : XviD 1.2.1 (UTC 2008-12-04)

Audio
ID                               : 1
Format                           : AC-3
Format/Info                      : Audio Coding 3
Mode extension                   : CM (complete main)
Codec ID                         : 2000
Duration                         : 1h 42mn
Bit rate mode                    : Constant
Bit rate                         : 448 Kbps
Channel(s)                       : 6 channels
Channel positions                : Front: L C R, Side: L R, LFE
Sampling rate                    : 48.0 KHz
Bit depth                        : 16 bits
Compression mode                 : Lossy
Stream size                      : 328 MiB (23%)
Alignment                        : Split accross interleaves
Interleave, duration             : 96 ms (2.40 video frames)
Interleave, preload duration     : 96 ms
Language                         : Polish

